<svg width="92" height="80" viewBox="0 0 92 80" fill="none" xmlns="http://www.w3.org/2000/svg">
<path d="M42.285 49.921H30.811V61.393H42.285V49.921Z" fill="#6E33FF"/>
<path d="M61.353 49.921H49.877V61.393H61.353V49.921Z" fill="#6E33FF"/>
<path d="M42.285 67.974H30.811V79.449H42.285V67.974Z" fill="#6E33FF"/>
<path d="M61.353 67.974H49.877V79.449H61.353V67.974Z" fill="#6E33FF"/>
<path d="M16.356 79.725C15.533 79.725 14.72 79.412 14.103 78.819C5.009 70.1 0 58.364 0 45.77C0 20.532 20.532 0 45.77 0C71.007 0 91.54 20.532 91.54 45.77C91.54 57.898 86.843 69.331 78.313 77.96C77.385 78.898 75.983 79.183 74.761 78.683C73.541 78.182 72.743 76.992 72.743 75.672V52.524L46.177 33.12L19.61 52.524V76.469C19.61 77.775 18.832 78.952 17.631 79.464C17.221 79.64 16.787 79.725 16.356 79.725ZM45.77 6.50999C24.122 6.50999 6.50998 24.122 6.50998 45.77C6.50998 53.674 8.80998 61.187 13.101 67.578V50.871C13.101 49.833 13.597 48.856 14.435 48.243L44.256 26.462C45.399 25.627 46.952 25.627 48.096 26.462L77.916 48.243C78.755 48.856 79.25 49.833 79.25 50.871V66.298C83.016 60.178 85.028 53.124 85.028 45.77C85.03 24.122 67.418 6.50999 45.77 6.50999Z" fill="#6E33FF"/>
</svg>
