<svg width="92" height="108" viewBox="0 0 92 108" fill="none" xmlns="http://www.w3.org/2000/svg">
<path d="M42.285 49.921H30.811V61.393H42.285V49.921Z" fill="#6E33FF"/>
<path d="M61.353 49.921H49.877V61.393H61.353V49.921Z" fill="#6E33FF"/>
<path d="M42.285 67.974H30.811V79.449H42.285V67.974Z" fill="#6E33FF"/>
<path d="M61.353 67.974H49.877V79.449H61.353V67.974Z" fill="#6E33FF"/>
<path d="M16.356 79.725C15.533 79.725 14.72 79.412 14.103 78.819C5.009 70.1 0 58.364 0 45.77C0 20.532 20.532 0 45.77 0C71.007 0 91.54 20.532 91.54 45.77C91.54 57.898 86.843 69.331 78.313 77.96C77.385 78.898 75.983 79.183 74.761 78.683C73.541 78.182 72.743 76.992 72.743 75.672V52.524L46.177 33.12L19.61 52.524V76.469C19.61 77.775 18.832 78.952 17.631 79.464C17.221 79.64 16.787 79.725 16.356 79.725ZM45.77 6.50999C24.122 6.50999 6.50998 24.122 6.50998 45.77C6.50998 53.674 8.80998 61.187 13.101 67.578V50.871C13.101 49.833 13.597 48.856 14.435 48.243L44.256 26.462C45.399 25.627 46.952 25.627 48.096 26.462L77.916 48.243C78.755 48.856 79.25 49.833 79.25 50.871V66.298C83.016 60.178 85.028 53.124 85.028 45.77C85.03 24.122 67.418 6.50999 45.77 6.50999Z" fill="#6E33FF"/>
<path d="M22.833 100.125C21.094 100.125 19.636 99.473 18.459 98.169V107.189H16.965V88.688L18.595 90.209C19.772 88.995 21.185 88.389 22.833 88.389C24.463 88.389 25.849 88.959 26.99 90.101C28.131 91.242 28.701 92.627 28.701 94.257C28.701 95.851 28.13 97.228 26.99 98.386C25.848 99.546 24.463 100.125 22.833 100.125ZM22.833 98.631C24.064 98.631 25.102 98.21 25.943 97.367C26.785 96.525 27.207 95.488 27.207 94.257C27.207 93.026 26.786 91.988 25.943 91.146C25.101 90.304 24.064 89.883 22.833 89.883C21.619 89.883 20.587 90.309 19.736 91.159C18.884 92.012 18.459 93.044 18.459 94.257C18.459 95.471 18.884 96.503 19.736 97.354C20.587 98.205 21.619 98.631 22.833 98.631Z" fill="#6E33FF"/>
<path d="M31.213 84.341H32.707V85.971H31.213V84.341ZM31.213 88.688H32.707V99.799H31.213V88.688Z" fill="#6E33FF"/>
<path d="M40.192 93.388L43.833 99.799H42.122L39.324 94.882L36.526 99.799H34.815L38.482 93.388L35.793 88.688H37.504L39.324 91.893L41.144 88.688H42.855L40.192 93.388Z" fill="#6E33FF"/>
<path d="M51.752 88.66L51.073 89.991C50.856 89.919 50.593 89.883 50.285 89.883C49.452 89.883 48.768 90.164 48.234 90.725C47.699 91.287 47.432 91.957 47.432 92.736V99.799H45.938V88.688L47.188 89.693C48.021 88.824 49.053 88.389 50.285 88.389C50.828 88.389 51.317 88.48 51.752 88.66Z" fill="#6E33FF"/>
<path d="M63.121 88.688V99.799L61.845 98.767C60.993 99.655 59.943 100.098 58.693 100.098C57.443 100.098 56.393 99.672 55.542 98.822C54.69 97.97 54.265 96.92 54.265 95.671V88.689H55.759V95.671C55.759 96.485 56.053 97.178 56.642 97.749C57.23 98.319 57.914 98.604 58.693 98.604C59.544 98.604 60.246 98.31 60.799 97.721C61.351 97.132 61.627 96.449 61.627 95.67V88.688H63.121Z" fill="#6E33FF"/>
<path d="M71.908 100.125C70.17 100.125 68.713 99.473 67.535 98.169V107.189H66.041V88.688L67.672 90.209C68.848 88.995 70.262 88.389 71.908 88.389C73.539 88.389 74.924 88.959 76.066 90.101C77.207 91.242 77.777 92.627 77.777 94.257C77.777 95.851 77.207 97.228 76.066 98.386C74.924 99.546 73.539 100.125 71.908 100.125ZM71.908 98.631C73.14 98.631 74.178 98.21 75.019 97.367C75.861 96.525 76.283 95.488 76.283 94.257C76.283 93.026 75.861 91.988 75.019 91.146C74.177 90.304 73.14 89.883 71.908 89.883C70.695 89.883 69.664 90.309 68.812 91.159C67.96 92.012 67.535 93.044 67.535 94.257C67.535 95.471 67.961 96.503 68.812 97.354C69.664 98.205 70.695 98.631 71.908 98.631Z" fill="#6E33FF"/>
</svg>
