<svg width="92" height="119" viewBox="0 0 92 119" fill="none" xmlns="http://www.w3.org/2000/svg">
<path d="M42.285 49.921H30.811V61.393H42.285V49.921Z" fill="#6E33FF"/>
<path d="M61.353 49.921H49.877V61.393H61.353V49.921Z" fill="#6E33FF"/>
<path d="M42.285 67.974H30.811V79.449H42.285V67.974Z" fill="#6E33FF"/>
<path d="M61.353 67.974H49.877V79.449H61.353V67.974Z" fill="#6E33FF"/>
<path d="M16.356 79.725C15.533 79.725 14.72 79.412 14.103 78.819C5.009 70.1 0 58.364 0 45.77C0 20.532 20.532 0 45.77 0C71.007 0 91.54 20.532 91.54 45.77C91.54 57.898 86.843 69.331 78.313 77.96C77.385 78.898 75.983 79.183 74.761 78.683C73.541 78.182 72.743 76.992 72.743 75.672V52.524L46.177 33.12L19.61 52.524V76.469C19.61 77.775 18.832 78.952 17.631 79.464C17.221 79.64 16.787 79.725 16.356 79.725ZM45.77 6.50999C24.122 6.50999 6.50998 24.122 6.50998 45.77C6.50998 53.674 8.80998 61.187 13.101 67.578V50.871C13.101 49.833 13.597 48.856 14.435 48.243L44.256 26.462C45.399 25.627 46.952 25.627 48.096 26.462L77.916 48.243C78.755 48.856 79.25 49.833 79.25 50.871V66.298C83.016 60.178 85.028 53.124 85.028 45.77C85.03 24.122 67.418 6.50999 45.77 6.50999Z" fill="#6E33FF"/>
<path d="M22.833 100.125C21.094 100.125 19.636 99.473 18.459 98.169V107.189H16.965V88.688L18.595 90.209C19.772 88.995 21.185 88.389 22.833 88.389C24.463 88.389 25.849 88.959 26.99 90.101C28.131 91.242 28.701 92.627 28.701 94.257C28.701 95.851 28.13 97.228 26.99 98.386C25.848 99.546 24.463 100.125 22.833 100.125ZM22.833 98.631C24.064 98.631 25.102 98.21 25.943 97.367C26.785 96.525 27.207 95.488 27.207 94.257C27.207 93.026 26.786 91.988 25.943 91.146C25.101 90.304 24.064 89.883 22.833 89.883C21.619 89.883 20.587 90.309 19.736 91.159C18.884 92.012 18.459 93.044 18.459 94.257C18.459 95.471 18.884 96.503 19.736 97.354C20.587 98.205 21.619 98.631 22.833 98.631Z" fill="#6E33FF"/>
<path d="M31.213 84.341H32.707V85.971H31.213V84.341ZM31.213 88.688H32.707V99.799H31.213V88.688Z" fill="#6E33FF"/>
<path d="M40.192 93.388L43.833 99.799H42.122L39.324 94.882L36.526 99.799H34.815L38.482 93.388L35.793 88.688H37.504L39.324 91.893L41.144 88.688H42.855L40.192 93.388Z" fill="#6E33FF"/>
<path d="M51.752 88.66L51.073 89.991C50.856 89.919 50.593 89.883 50.285 89.883C49.452 89.883 48.768 90.164 48.234 90.725C47.699 91.287 47.432 91.957 47.432 92.736V99.799H45.938V88.688L47.188 89.693C48.021 88.824 49.053 88.389 50.285 88.389C50.828 88.389 51.317 88.48 51.752 88.66Z" fill="#6E33FF"/>
<path d="M63.121 88.688V99.799L61.845 98.767C60.993 99.655 59.943 100.098 58.693 100.098C57.443 100.098 56.393 99.672 55.542 98.822C54.69 97.97 54.265 96.92 54.265 95.671V88.689H55.759V95.671C55.759 96.485 56.053 97.178 56.642 97.749C57.23 98.319 57.914 98.604 58.693 98.604C59.544 98.604 60.246 98.31 60.799 97.721C61.351 97.132 61.627 96.449 61.627 95.67V88.688H63.121Z" fill="#6E33FF"/>
<path d="M71.908 100.125C70.17 100.125 68.713 99.473 67.535 98.169V107.189H66.041V88.688L67.672 90.209C68.848 88.995 70.262 88.389 71.908 88.389C73.539 88.389 74.924 88.959 76.066 90.101C77.207 91.242 77.777 92.627 77.777 94.257C77.777 95.851 77.207 97.228 76.066 98.386C74.924 99.546 73.539 100.125 71.908 100.125ZM71.908 98.631C73.14 98.631 74.178 98.21 75.019 97.367C75.861 96.525 76.283 95.488 76.283 94.257C76.283 93.026 75.861 91.988 75.019 91.146C74.177 90.304 73.14 89.883 71.908 89.883C70.695 89.883 69.664 90.309 68.812 91.159C67.96 92.012 67.535 93.044 67.535 94.257C67.535 95.471 67.961 96.503 68.812 97.354C69.664 98.205 70.695 98.631 71.908 98.631Z" fill="#6E33FF"/>
<path d="M8.98398 115.858H6.71899L6.267 117.072H5.73798L7.573 112.21H8.13098L9.965 117.072H9.42899L8.98398 115.858ZM8.836 115.462L7.85498 112.781L6.85999 115.462H8.836Z" fill="#6E33FF"/>
<path d="M10.999 111.828C11.067 111.766 11.155 111.736 11.264 111.736C11.372 111.736 11.459 111.766 11.525 111.828C11.591 111.89 11.624 111.972 11.624 112.075C11.624 112.174 11.591 112.254 11.525 112.315C11.459 112.376 11.372 112.407 11.264 112.407C11.156 112.407 11.067 112.376 10.999 112.315C10.931 112.253 10.896 112.173 10.896 112.075C10.896 111.972 10.93 111.89 10.999 111.828ZM11.51 113.219V117.072H11.009V113.219H11.51Z" fill="#6E33FF"/>
<path d="M17.79 117.072L16.428 114.998H15.623V117.072H15.122V112.097H16.646C17.206 112.097 17.624 112.229 17.898 112.492C18.173 112.756 18.311 113.111 18.311 113.557C18.311 113.971 18.194 114.301 17.961 114.545C17.728 114.79 17.391 114.936 16.948 114.983L18.352 117.072H17.79ZM15.624 114.623H16.612C17.412 114.623 17.812 114.276 17.812 113.585C17.812 112.88 17.412 112.526 16.612 112.526H15.624V114.623Z" fill="#6E33FF"/>
<path d="M22.046 116.45C22.281 116.276 22.422 116.041 22.469 115.745H22.991C22.92 116.154 22.725 116.485 22.405 116.739C22.085 116.994 21.68 117.121 21.191 117.121C20.824 117.121 20.499 117.042 20.214 116.885C19.929 116.727 19.707 116.499 19.547 116.2C19.387 115.901 19.307 115.55 19.307 115.144C19.307 114.74 19.387 114.388 19.547 114.089C19.707 113.79 19.929 113.563 20.214 113.404C20.499 113.247 20.824 113.168 21.191 113.168C21.567 113.168 21.893 113.247 22.169 113.404C22.444 113.562 22.653 113.772 22.797 114.036C22.941 114.3 23.012 114.586 23.012 114.896C23.012 115.028 23.003 115.148 22.984 115.256H19.795C19.799 115.58 19.867 115.853 19.996 116.071C20.125 116.289 20.293 116.451 20.5 116.553C20.707 116.657 20.931 116.708 21.17 116.708C21.519 116.711 21.81 116.624 22.046 116.45ZM20.507 113.727C20.3 113.831 20.132 113.989 20.003 114.204C19.874 114.418 19.804 114.684 19.795 115.005H22.519C22.538 114.69 22.486 114.424 22.364 114.207C22.242 113.991 22.077 113.831 21.87 113.728C21.663 113.625 21.437 113.573 21.192 113.573C20.943 113.572 20.714 113.623 20.507 113.727Z" fill="#6E33FF"/>
<path d="M26.876 113.473C27.151 113.675 27.341 113.943 27.444 114.277V113.219H27.931V117.072H27.444V116.013C27.34 116.347 27.151 116.616 26.876 116.818C26.601 117.02 26.268 117.122 25.877 117.122C25.529 117.122 25.217 117.042 24.942 116.882C24.667 116.722 24.453 116.492 24.3 116.194C24.147 115.896 24.071 115.547 24.071 115.146C24.071 114.742 24.147 114.39 24.3 114.091C24.453 113.792 24.666 113.565 24.939 113.406C25.212 113.249 25.525 113.17 25.877 113.17C26.268 113.169 26.601 113.271 26.876 113.473ZM24.964 114.02C24.703 114.295 24.572 114.67 24.572 115.145C24.572 115.621 24.702 115.996 24.964 116.271C25.226 116.546 25.572 116.684 26.005 116.684C26.278 116.684 26.524 116.621 26.743 116.493C26.962 116.366 27.133 116.186 27.258 115.954C27.383 115.721 27.445 115.451 27.445 115.145C27.445 114.839 27.383 114.57 27.258 114.337C27.133 114.104 26.962 113.924 26.743 113.797C26.524 113.67 26.278 113.607 26.005 113.607C25.572 113.607 25.225 113.744 24.964 114.02Z" fill="#6E33FF"/>
<path d="M29.857 111.85V117.072H29.356V111.85H29.857Z" fill="#6E33FF"/>
<path d="M33.033 116.634V117.072H32.575C32.203 117.072 31.926 116.984 31.742 116.807C31.558 116.63 31.467 116.333 31.467 115.914V113.648H30.882V113.218H31.467V112.243H31.968V113.218H33.027V113.648H31.968V115.92C31.968 116.193 32.017 116.38 32.116 116.482C32.215 116.583 32.388 116.633 32.638 116.633H33.033V116.634Z" fill="#6E33FF"/>
<path d="M34.303 113.219L35.644 116.429L36.879 113.219H37.429L35.164 118.892H34.6L35.376 117.03L33.753 113.219H34.303Z" fill="#6E33FF"/>
<path d="M43.264 117.072L41.902 114.998H41.097V117.072H40.596V112.097H42.12C42.68 112.097 43.098 112.229 43.372 112.492C43.647 112.756 43.785 113.111 43.785 113.557C43.785 113.971 43.668 114.301 43.435 114.545C43.202 114.79 42.865 114.936 42.422 114.983L43.826 117.072H43.264ZM41.098 114.623H42.086C42.886 114.623 43.286 114.276 43.286 113.585C43.286 112.88 42.886 112.526 42.086 112.526H41.098V114.623Z" fill="#6E33FF"/>
<path d="M47.52 116.45C47.755 116.276 47.896 116.041 47.943 115.745H48.465C48.394 116.154 48.199 116.485 47.879 116.739C47.559 116.994 47.154 117.121 46.665 117.121C46.298 117.121 45.973 117.042 45.688 116.885C45.403 116.727 45.181 116.499 45.021 116.2C44.861 115.901 44.781 115.55 44.781 115.144C44.781 114.74 44.861 114.388 45.021 114.089C45.181 113.79 45.403 113.563 45.688 113.404C45.973 113.247 46.298 113.168 46.665 113.168C47.041 113.168 47.367 113.247 47.643 113.404C47.918 113.562 48.127 113.772 48.271 114.036C48.415 114.3 48.486 114.586 48.486 114.896C48.486 115.028 48.477 115.148 48.458 115.256H45.269C45.273 115.58 45.341 115.853 45.47 116.071C45.599 116.289 45.767 116.451 45.974 116.553C46.181 116.657 46.405 116.708 46.644 116.708C46.993 116.711 47.284 116.624 47.52 116.45ZM45.981 113.727C45.774 113.831 45.606 113.989 45.477 114.204C45.348 114.418 45.278 114.684 45.269 115.005H47.993C48.012 114.69 47.96 114.424 47.838 114.207C47.716 113.991 47.551 113.831 47.344 113.728C47.137 113.625 46.911 113.573 46.666 113.573C46.417 113.572 46.188 113.623 45.981 113.727Z" fill="#6E33FF"/>
<path d="M49.718 111.828C49.786 111.766 49.874 111.736 49.982 111.736C50.09 111.736 50.177 111.766 50.244 111.828C50.309 111.89 50.343 111.972 50.343 112.075C50.343 112.174 50.31 112.254 50.244 112.315C50.178 112.376 50.091 112.407 49.982 112.407C49.874 112.407 49.786 112.376 49.718 112.315C49.65 112.253 49.615 112.173 49.615 112.075C49.616 111.972 49.65 111.89 49.718 111.828ZM50.229 113.219V117.072H49.728V113.219H50.229Z" fill="#6E33FF"/>
<path d="M57.41 113.574C57.685 113.859 57.823 114.276 57.823 114.827V117.071H57.329V114.862C57.329 114.448 57.229 114.131 57.029 113.91C56.829 113.688 56.554 113.578 56.207 113.578C55.835 113.578 55.539 113.7 55.318 113.945C55.096 114.189 54.986 114.549 54.986 115.024V117.071H54.499V114.862C54.499 114.448 54.399 114.131 54.199 113.91C53.999 113.688 53.725 113.578 53.377 113.578C53.006 113.578 52.709 113.7 52.488 113.945C52.266 114.189 52.156 114.549 52.156 115.024V117.071H51.655V113.218H52.156V114.135C52.251 113.811 52.421 113.565 52.668 113.398C52.915 113.231 53.201 113.147 53.525 113.147C53.864 113.147 54.156 113.237 54.4 113.416C54.645 113.595 54.814 113.858 54.908 114.206C55.012 113.863 55.193 113.601 55.452 113.42C55.711 113.238 56.005 113.148 56.334 113.148C56.776 113.148 57.135 113.29 57.41 113.574Z" fill="#6E33FF"/>
<path d="M61.835 113.473C62.109 113.675 62.299 113.943 62.402 114.277V113.219H62.889V117.072H62.402V116.013C62.298 116.347 62.109 116.616 61.835 116.818C61.56 117.02 61.227 117.122 60.836 117.122C60.488 117.122 60.177 117.042 59.901 116.882C59.625 116.722 59.412 116.492 59.258 116.194C59.106 115.895 59.029 115.547 59.029 115.146C59.029 114.742 59.106 114.39 59.258 114.091C59.411 113.792 59.624 113.565 59.897 113.406C60.169 113.249 60.483 113.17 60.835 113.17C61.226 113.169 61.559 113.271 61.835 113.473ZM59.922 114.02C59.661 114.295 59.53 114.67 59.53 115.145C59.53 115.621 59.661 115.996 59.922 116.271C60.184 116.546 60.53 116.684 60.963 116.684C61.236 116.684 61.482 116.621 61.7 116.493C61.919 116.366 62.091 116.186 62.216 115.954C62.34 115.721 62.403 115.451 62.403 115.145C62.403 114.839 62.341 114.57 62.216 114.337C62.091 114.104 61.919 113.924 61.7 113.797C61.481 113.67 61.236 113.607 60.963 113.607C60.53 113.607 60.183 113.744 59.922 114.02Z" fill="#6E33FF"/>
<path d="M66.936 113.473C67.21 113.675 67.4 113.943 67.503 114.277V113.219H67.99V117.163C67.99 117.52 67.915 117.835 67.764 118.105C67.613 118.376 67.404 118.584 67.136 118.733C66.867 118.88 66.562 118.955 66.218 118.955C65.715 118.955 65.302 118.834 64.98 118.592C64.658 118.35 64.447 118.022 64.348 117.608H64.842C64.927 117.89 65.083 118.114 65.312 118.279C65.54 118.443 65.833 118.526 66.19 118.526C66.435 118.526 66.657 118.472 66.857 118.367C67.057 118.262 67.214 118.104 67.33 117.897C67.446 117.69 67.503 117.446 67.503 117.164V116.014C67.399 116.348 67.21 116.617 66.936 116.819C66.661 117.021 66.328 117.123 65.937 117.123C65.589 117.123 65.278 117.043 65.002 116.883C64.726 116.723 64.513 116.493 64.359 116.195C64.207 115.896 64.13 115.548 64.13 115.147C64.13 114.743 64.207 114.391 64.359 114.092C64.512 113.793 64.725 113.566 64.998 113.407C65.27 113.25 65.584 113.171 65.936 113.171C66.328 113.169 66.661 113.271 66.936 113.473ZM65.023 114.02C64.762 114.295 64.631 114.67 64.631 115.145C64.631 115.621 64.762 115.996 65.023 116.271C65.285 116.546 65.631 116.684 66.064 116.684C66.337 116.684 66.583 116.621 66.801 116.493C67.02 116.366 67.192 116.186 67.317 115.954C67.441 115.721 67.504 115.451 67.504 115.145C67.504 114.839 67.442 114.57 67.317 114.337C67.192 114.104 67.02 113.924 66.801 113.797C66.582 113.67 66.337 113.607 66.064 113.607C65.632 113.607 65.285 113.744 65.023 114.02Z" fill="#6E33FF"/>
<path d="M69.405 111.828C69.473 111.766 69.561 111.736 69.67 111.736C69.779 111.736 69.865 111.766 69.932 111.828C69.997 111.89 70.031 111.972 70.031 112.075C70.031 112.174 69.998 112.254 69.932 112.315C69.866 112.376 69.779 112.407 69.67 112.407C69.561 112.407 69.474 112.376 69.405 112.315C69.337 112.253 69.303 112.173 69.303 112.075C69.304 111.972 69.337 111.89 69.405 111.828ZM69.917 113.219V117.072H69.416V113.219H69.917Z" fill="#6E33FF"/>
<path d="M74.359 113.574C74.639 113.859 74.779 114.276 74.779 114.827V117.071H74.293V114.862C74.293 114.444 74.187 114.123 73.975 113.899C73.764 113.675 73.474 113.564 73.108 113.564C72.722 113.564 72.415 113.687 72.187 113.934C71.958 114.181 71.844 114.544 71.844 115.024V117.071H71.343V113.218H71.844V114.163C71.943 113.834 72.121 113.582 72.38 113.408C72.639 113.234 72.936 113.146 73.27 113.146C73.717 113.148 74.08 113.29 74.359 113.574Z" fill="#6E33FF"/>
<path d="M78.731 116.45C78.966 116.276 79.107 116.041 79.155 115.745H79.676C79.606 116.154 79.41 116.485 79.091 116.739C78.771 116.994 78.366 117.121 77.877 117.121C77.51 117.121 77.184 117.042 76.899 116.885C76.614 116.727 76.392 116.499 76.232 116.2C76.072 115.901 75.992 115.55 75.992 115.144C75.992 114.74 76.072 114.388 76.232 114.089C76.392 113.79 76.614 113.563 76.899 113.404C77.183 113.247 77.509 113.168 77.877 113.168C78.253 113.168 78.579 113.247 78.854 113.404C79.129 113.562 79.339 113.772 79.483 114.036C79.626 114.3 79.698 114.586 79.698 114.896C79.698 115.028 79.688 115.148 79.67 115.256H76.481C76.486 115.58 76.552 115.853 76.682 116.071C76.811 116.29 76.979 116.451 77.187 116.553C77.393 116.657 77.617 116.708 77.857 116.708C78.204 116.711 78.496 116.624 78.731 116.45ZM77.193 113.727C76.986 113.831 76.818 113.989 76.688 114.204C76.559 114.418 76.489 114.684 76.48 115.005H79.204C79.223 114.69 79.171 114.424 79.049 114.207C78.927 113.991 78.762 113.831 78.555 113.728C78.348 113.625 78.122 113.573 77.878 113.573C77.628 113.572 77.4 113.623 77.193 113.727Z" fill="#6E33FF"/>
<path d="M83.561 113.473C83.835 113.675 84.023 113.943 84.122 114.277V111.85H84.616V117.072H84.122V116.013C84.023 116.347 83.836 116.616 83.561 116.818C83.286 117.02 82.953 117.122 82.562 117.122C82.214 117.122 81.903 117.042 81.627 116.882C81.351 116.722 81.138 116.492 80.984 116.194C80.832 115.895 80.755 115.547 80.755 115.146C80.755 114.742 80.832 114.39 80.984 114.091C81.137 113.792 81.35 113.565 81.623 113.406C81.895 113.249 82.209 113.17 82.561 113.17C82.953 113.169 83.286 113.271 83.561 113.473ZM81.648 114.02C81.387 114.295 81.256 114.67 81.256 115.145C81.256 115.621 81.387 115.996 81.648 116.271C81.91 116.546 82.256 116.684 82.689 116.684C82.962 116.684 83.208 116.621 83.426 116.493C83.645 116.366 83.817 116.186 83.942 115.954C84.066 115.721 84.129 115.451 84.129 115.145C84.129 114.839 84.067 114.57 83.942 114.337C83.817 114.104 83.645 113.924 83.426 113.797C83.207 113.67 82.962 113.607 82.689 113.607C82.257 113.607 81.91 113.744 81.648 114.02Z" fill="#6E33FF"/>
<path d="M86.374 116.437V117.072H85.718V116.437H86.374Z" fill="#6E33FF"/>
</svg>
